<?xml version="1.0" encoding="UTF-8" standalone="no"?>
<!-- Created with Inkscape (http://www.inkscape.org/) -->

<svg
   xmlns:dc="http://purl.org/dc/elements/1.1/"
   xmlns:cc="http://creativecommons.org/ns#"
   xmlns:rdf="http://www.w3.org/1999/02/22-rdf-syntax-ns#"
   xmlns:svg="http://www.w3.org/2000/svg"
   xmlns="http://www.w3.org/2000/svg"
   xmlns:xlink="http://www.w3.org/1999/xlink"
   version="1.1"
   width="220px"
   height="200px"
   id="svg2">
  <g
     id="layer1">
    <g
       transform="matrix(0.32241179,0,0,0.28571161,-19.568055,-11.578565)"
       id="g5405">
      <text
         x="47.838856"
         y="816.86249"
         transform="scale(1.1248925,0.88897383)"
         id="text3065"
         xml:space="preserve"
         style="font-size:357.83834839px;font-style:normal;font-variant:normal;font-weight:normal;font-stretch:normal;line-height:125%;letter-spacing:0px;word-spacing:0px;fill:#009fff;fill-opacity:0.74230766;stroke:none;font-family:Segoe Script;-inkscape-font-specification:Segoe Script"><tspan
           x="47.838856"
           y="816.86249"
           id="tspan3067"
           style="font-weight:normal;fill:#009fff;fill-opacity:0.74230766;-inkscape-font-specification:Segoe Script">S</tspan></text>
      <text
         x="605.76489"
         y="482.50858"
         transform="scale(0.70933184,1.4097774)"
         id="text3061-1"
         xml:space="preserve"
         style="font-size:173.55740356px;font-style:normal;font-variant:normal;font-weight:normal;font-stretch:normal;line-height:125%;letter-spacing:0px;word-spacing:0px;fill:#009fff;fill-opacity:0.74230766;stroke:none;font-family:Segoe Script;-inkscape-font-specification:Segoe Script"><tspan
           x="605.76489"
           y="482.50858"
           id="tspan3063-7"
           style="font-style:normal;font-variant:normal;font-weight:bold;font-stretch:normal;fill:#009fff;fill-opacity:0.74230766;font-family:Segoe Script;-inkscape-font-specification:Segoe Script Bold">tory</tspan></text>
      <text
         x="255.73262"
         y="601.20013"
         transform="scale(0.99295245,1.0070976)"
         id="text2985"
         xml:space="preserve"
         style="font-size:322.86813354px;font-style:normal;font-variant:normal;font-weight:bold;font-stretch:normal;line-height:125%;letter-spacing:0px;word-spacing:0px;fill:#000000;fill-opacity:1;stroke:none;font-family:Segoe Script;-inkscape-font-specification:Segoe Script Bold"><tspan
           x="255.73262"
           y="601.20013"
           id="tspan2987"
           style="font-weight:normal;-inkscape-font-specification:Segoe Script">V</tspan></text>
      <path
         d="m 190.26056,445.49817 -3.2014,-1.95203 -1.5486,-2.99457 -1.5485,-2.99456 0,-2.83822 0,-2.83822 1.8723,-3.67245 1.8723,-3.67245 -0.5389,-0.53899 c -0.2965,-0.29644 -1.417,-0.53899 -2.49,-0.53899 l -1.951,0 -3.8823,-3.88235 -3.8824,-3.88236 0,-5.21764 0,-5.21765 3.2969,-3.29692 3.2969,-3.29693 3.9531,-1.17156 3.9531,-1.17156 11,-0.52911 11,-0.52912 7.2595,1.54578 7.2595,1.54578 5.9905,2.68838 5.9905,2.68839 0,1.96074 0,1.96074 -4.1801,8.15269 -4.1802,8.1527 -9.0698,9.00033 -9.0699,9.00033 -5.5144,2.74967 -5.5143,2.74967 -3.4857,-0.004 -3.4856,-0.004 -3.2015,-1.95204 z"
         id="path5366"
         style="fill:#00ca00;fill-opacity:0.91556061" />
      <path
         d="m 528.90786,418.62078 -4.4458,-2.83691 -6.5193,-6.93723 -6.5192,-6.93722 -3.8291,-7.74944 -3.829,-7.74944 -0.5175,-3.85762 -0.5174,-3.85762 4.8658,-1.60464 c 2.6761,-0.88256 8.3442,-2.08371 12.5956,-2.66924 l 7.7299,-1.06458 8.1619,1.11752 8.1619,1.11751 5.4338,2.03304 5.4338,2.03304 1.9792,3.14987 1.9792,3.14987 -0.4565,4.46756 -0.4565,4.46756 -3.1141,2.78244 -3.114,2.78244 -3.1009,0 -3.1009,0 0.7453,2.25 c 0.4099,1.2375 0.9559,4.38897 1.2134,7.00327 l 0.4681,4.75326 -3.4968,3.49674 -3.4967,3.49673 -3.9042,0 -3.9042,0 -4.4458,-2.83691 z"
         id="path5364"
         style="fill:#00ca00;fill-opacity:0.91556061" />
      <path
         d="m 366.84941,446.23576 c -7.45105,-1.56018 -13.73915,-4.74126 -21.04661,-10.64716 l -5.74625,-4.64411 -4.85308,-8.93629 -4.85309,-8.93628 0.0142,-12.69792 0,-12.69794 3.04667,-6.59681 3.04682,-6.59682 6.0754,-6.5801 6.07553,-6.5801 7.1229,-3.75257 7.12303,-3.75257 14.13245,0 14.13245,0 7.1229,3.75257 7.12303,3.75257 6.0754,6.5801 6.07554,6.5801 3.05388,6.59682 3.05388,6.59681 -0.0283,12.69794 -0.0283,12.69792 -4.82425,8.93628 -4.82426,8.93629 -5.85889,4.79283 c -3.22234,2.63607 -8.66997,6.0294 -12.10571,7.54077 l -6.24711,2.74793 -8.47947,0.72239 -8.47947,0.7224 -5.89831,-1.23505 z"
         id="path5362"
         style="fill:#009fff;fill-opacity:0.74117647" />
      <path
         d="m 492.36596,355.43762 -7.096,-0.74851 -5.8868,-1.71134 c -3.2378,-0.94124 -8.5945,-2.9424 -11.904,-4.44702 l -6.0171,-2.73567 -1.3509,-1.64271 -1.3509,-1.64271 4.1904,-7.77599 c 8.078,-14.99005 19.8713,-26.58428 34.7216,-34.13523 l 4.2101,-2.14075 5.6575,0 5.6575,0 3.8824,3.88235 3.8823,3.88236 0,5.36764 0,5.36765 -1.9963,3.27417 c -1.0974,1.80079 -1.9957,3.65704 -1.9957,4.125 l 0,0.85083 3.0938,0.61875 3.0937,0.61875 3.2802,3.28015 3.2801,3.28016 0.7026,4.15885 0.7027,4.15886 -2.0376,4.60623 -2.0375,4.60622 -4.3639,1.93036 -4.3639,1.93036 -8.9251,1.02245 c -4.9088,0.56235 -9.1501,0.96504 -9.4251,0.89487 -0.275,-0.0702 -3.6932,-0.4644 -7.5961,-0.87608 z"
         id="path5360"
         style="fill:#00a000;fill-opacity:1" />
      <path
         d="m 174.84756,353.42201 -6.6145,-0.77283 -2.8855,-1.50073 c -3.2099,-1.66946 -6.5522,-5.05808 -8.2605,-8.37502 l -1.125,-2.18426 0,-5.13148 0,-5.13148 1.12,-2.18426 c 0.616,-1.20134 2.4961,-3.63828 4.1779,-5.41542 l 3.0579,-3.23117 3.3221,-1.09639 3.3221,-1.09638 0,-1.42245 0,-1.42245 -0.9578,0 -0.9579,0 -2.5421,-4.33786 -2.5422,-4.33786 0,-4.76101 0,-4.76101 1.6691,-3.51735 1.6691,-3.51734 3.9809,-2.88379 3.981,-2.88378 5.3271,0 5.3271,0 6.5195,2.45391 c 8.6728,3.26442 18.5266,9.14825 26.7641,15.98118 l 6.738,5.58901 5.262,6.39724 c 4.9651,6.03615 10.9386,15.13492 12.2631,18.67893 l 0.5981,1.60027 -6.2996,4.10148 c -8.1138,5.28274 -17.841,9.6681 -27.011,12.17751 l -7.2885,1.99454 -9.5,0.99563 c -10.4197,1.09203 -9.7203,1.09223 -19.1145,-0.005 z"
         id="path5358"
         style="fill:#00a000;fill-opacity:1" />
      <path
         d="m 308.51686,324.84393 -7.9451,-1.43429 -10.215,-3.41815 c -12.5356,-4.19469 -21.2935,-8.5428 -32.9556,-16.36185 l -8.9391,-5.99339 -6.667,-6.58863 -6.6671,-6.58862 -1.7022,-4.4572 -1.7022,-4.4572 0.4099,-6.43763 0.4099,-6.43764 2.9593,-4.74974 2.9594,-4.74974 5.3004,-2.98108 5.3004,-2.98108 6.3459,0 6.3458,0 3.2574,1.625 c 1.7915,0.89375 3.5638,1.625 3.9384,1.625 l 0.6809,0 -0.4491,-7.75812 -0.4491,-7.75812 1.463,-3.49188 c 0.8046,-1.92053 2.7502,-5.01868 4.3236,-6.88478 l 2.8607,-3.3929 5.0408,-2.34733 5.0409,-2.34733 5.0707,-0.01 5.0707,-0.01 5.429,2.75 5.4291,2.75 3.7599,5 c 8.3006,11.03829 16.6836,30.60207 20.3534,47.5 l 1.846,8.5 0.021,18 0.021,18 -0.7953,3.75 -0.7954,3.75 -8.2046,-0.0897 -8.2047,-0.0897 -7.9452,-1.43429 z"
         id="path5356"
         style="fill:#00ca00;fill-opacity:0.91556061" />
      <path
         d="m 394.18066,318.70769 -0.7186,-1.75 0.09,-16 0.09,-16 2.6087,-9.7737 2.6086,-9.77369 4.5612,-9.22631 c 2.5086,-5.07446 6.1282,-11.35282 8.0436,-13.9519 l 3.4824,-4.7256 3.9682,-2.0244 3.9681,-2.0244 4.7242,0 4.7241,0 4.3817,2.12115 4.3817,2.12115 2.684,4.05719 2.684,4.0572 -0.041,7.34858 -0.041,7.34858 1.5414,-0.72177 c 0.8477,-0.39697 4.3011,-0.89515 7.6741,-1.10706 l 6.1327,-0.38529 4.0331,2.05749 4.033,2.0575 1.9454,2.77264 c 1.07,1.52495 2.508,4.5063 3.1956,6.62522 l 1.2502,3.85257 -0.6558,4.10125 -0.6558,4.10125 -1.9693,3.18644 -1.9694,3.18644 -5.2362,4.42823 c -7.3462,6.21253 -12.9892,9.90353 -22.2363,14.54424 l -8,4.01487 -7,2.16969 -7,2.1697 -9.5,1.44047 c -5.225,0.79227 -11.2016,1.44313 -13.2814,1.44637 l -3.7813,0.006 -0.7187,-1.75 z"
         id="path5354"
         style="fill:#00ca00;fill-opacity:0.91556061" />
      <path
         d="m 566.59576,315.99833 c -11.2803,-4.63784 -21.8105,-13.12352 -28.6854,-23.1158 l -2.9483,-4.28519 0,-1.52517 0,-1.52516 6.75,-3.97703 6.75,-3.97703 6.5,-2.19898 6.5,-2.19897 9.6015,-0.4952 9.6016,-0.49521 3.7258,1.22965 3.7259,1.22964 1.9189,3.1469 1.9188,3.14691 0,3.67327 0,3.67328 -2.5439,3.02328 -2.5439,3.02327 -1.9561,0.62084 -1.9561,0.62084 0,1.02488 c 0,0.56368 0.9,2.16905 2,3.56747 l 2,2.54259 0,4.46514 0,4.46514 -3.4,3.4 -3.4,3.4 -3.85,-0.0237 -3.85,-0.0237 -5.8663,-2.41189 z"
         id="path5352"
         style="fill:#00ca00;fill-opacity:0.91556061" />
      <path
         d="m 119.14406,283.42728 -3.3181,-2.02293 -2.0085,-4.54057 -2.0085,-4.54057 0.6968,-4.18276 0.6968,-4.18276 4.1055,-3.92474 4.1056,-3.92473 -1.4758,-0.47968 c -0.8117,-0.26382 -3.126,-2.11992 -5.1429,-4.12467 l -3.667,-3.645 -0.7172,-3.82313 -0.7173,-3.82314 1.9079,-4.60353 1.9079,-4.60353 3.3743,-2.27392 3.3743,-2.27393 6.3942,0 6.3943,0 7.3789,1.52414 7.3788,1.52415 7.1586,2.95194 7.1585,2.95194 6.6704,4.52202 c 3.6688,2.4871 8.4102,6.02909 10.5364,7.87108 l 3.8659,3.34907 -0.6499,2.04766 -0.6499,2.04766 -8.2777,7.94689 -8.2776,7.94689 -6.428,3.76733 c -7.1908,4.21443 -14.0074,7.12521 -21.4487,9.15896 l -5,1.36653 -5,0.008 -5,0.008 -3.318,-2.02293 z"
         id="path5350"
         style="fill:#00ca00;fill-opacity:0.91556061" />
      <path
         d="m 500.16206,262.25769 -1.2,-1.2 0,-10.16901 0,-10.16901 1.4666,-8.38099 c 1.8797,-10.74112 4.7132,-19.34786 9.6895,-29.43128 l 3.9729,-8.05029 4.4475,-5.9461 4.4475,-5.9461 4.2112,-2.48694 4.2111,-2.48695 5.6251,0 5.625,0 4.0286,2.66602 4.0287,2.66601 2.1914,3.54575 2.1913,3.54575 0.1818,4.77157 c 0.1,2.62436 -0.1387,5.90713 -0.5304,7.29505 l -0.7122,2.52348 8.7831,-0.0235 8.7832,-0.0235 3.6883,2.80793 3.6883,2.80793 2.0985,4.11352 2.0986,4.11351 -0.4145,5.73079 -0.4146,5.73078 -2.7532,3.60961 -2.7531,3.60961 -6.6901,5.08018 -6.6901,5.08019 -10,4.89036 -10,4.89035 -7.9622,2.03097 c -8.4227,2.14846 -22.0015,3.98239 -29.5878,3.99607 l -4.55,0.008 -1.2,-1.2 z"
         id="path5348"
         style="fill:#00a000;fill-opacity:1" />
      <path
         d="m 361.36116,245.29403 -6.8991,-5.16366 -7.6493,-7.78041 -7.6493,-7.7804 -5.4921,-8.30594 c -6.8789,-10.40311 -11.6974,-20.04474 -15.0884,-30.19093 l -2.6352,-7.885 -0.6,-5.115 -0.5999,-5.115 1.2125,-4.49825 1.2125,-4.49824 4.6463,-4.64637 4.6464,-4.64636 4.4879,-1.20847 4.4879,-1.20846 4.4294,0.60711 4.4294,0.60712 4.2439,2.48711 4.2439,2.48711 2.1686,3.50885 c 1.1927,1.92987 2.4694,3.48626 2.8371,3.45865 0.3676,-0.0276 1.907,-2.66716 3.4208,-5.86567 l 2.7524,-5.81546 4.1448,-2.87233 4.1448,-2.87234 7.2055,-0.36386 7.2055,-0.36386 3.3973,1.71883 c 4.7349,2.39557 7.7327,5.31739 10.2446,9.98489 l 2.1527,4 -0.08,12.5 -0.08,12.5 -1.7868,8.5 c -0.9827,4.675 -3.1193,12.325 -4.748,17 l -2.9613,8.5 -4.9671,9.04734 -4.9672,9.04733 -6.0061,7.70267 -6.0062,7.70266 -1.2997,0 -1.2997,0 -6.8991,-5.16366 z"
         id="path5346"
         style="fill:#00a000;fill-opacity:1" />
      <path
         d="m 199.96206,222.51017 -8.5,-1.8068 -8.0087,-3.10248 -8.0087,-3.10248 -8.1852,-5.0372 -8.1852,-5.0372 -2.0495,-2.87825 -2.0495,-2.87826 -1.1166,-4.8549 -1.1166,-4.85491 1.1521,-4.26313 1.1521,-4.26313 3.0045,-3.42196 3.0045,-3.42196 4.4617,-1.70395 4.4618,-1.70395 5.4916,0.56678 c 3.0205,0.31174 5.4917,0.42926 5.4917,0.26117 0,-0.16809 -0.7252,-2.0412 -1.6115,-4.16247 l -1.6115,-3.85684 0.5831,-4.92314 0.5831,-4.92314 2.5295,-3.82239 2.5295,-3.82238 4.2489,-2.20465 4.2489,-2.20466 5,-0.007 5,-0.007 3.8637,1.86028 3.8637,1.86028 6.1363,7.2073 6.1363,7.2073 4.6219,7.8748 c 5.3983,9.19743 9.1984,18.44795 11.9907,29.18807 l 1.9984,7.68674 0.1945,9.43865 0.1945,9.43864 -2.5,0.71168 -2.5,0.71167 -14,0.0293 -14,0.0293 -8.5,-1.8068 z"
         id="path5344"
         style="fill:#00ca00;fill-opacity:0.91556061" />
      <path
         d="m 443.53826,217.58091 c -0.2981,-0.48223 -1.218,-3.74473 -2.0443,-7.25 l -1.5023,-6.37322 -0.015,-11.09004 -0.015,-11.09003 1.9384,-7.57904 1.9384,-7.57904 2.1019,-4.12015 2.102,-4.12016 3.2096,-2.01644 3.2097,-2.01643 4.938,0.42693 4.938,0.42694 3.2948,3.59532 3.2949,3.59532 0.645,4.03341 c 0.7169,4.48349 0.8468,4.55848 4.3893,2.53341 l 2.5,-1.42913 3,-0.0317 3,-0.0317 3.1957,1.94852 3.1956,1.94852 1.6001,2.44197 1.6,2.44197 0.5585,3.44141 0.5584,3.44142 -2.1815,4.27624 -2.1816,4.27624 -6.7276,6.72763 -6.7277,6.72763 -7.124,4.23229 -7.124,4.2323 -6.8209,2.4071 -6.821,2.4071 -2.691,0.0211 -2.691,0.0211 -0.5418,-0.87678 z"
         id="path5342"
         style="fill:#00ca00;fill-opacity:0.91556061" />
      <path
         d="m 278.34466,161.56327 -10.1174,-4.86567 -7.733,-5.21815 -7.7329,-5.21815 -7.4246,-7.05266 -7.4247,-7.05266 -5.4792,-7.28027 c -3.0137,-4.00414 -7.2344,-10.57376 -9.3794,-14.59914 l -3.9001,-7.31888 -0.6954,-3.342227 -0.6953,-3.34223 0.6457,-4.30573 0.6456,-4.30573 3.0063,-4.53861 3.0063,-4.53863 5.1441,-2.56342 5.1441,-2.56342 5.0536,0.022 5.0537,0.022 4,1.83681 4,1.83681 1.905,2.14123 1.905,2.14123 1.345,0 1.345,0 0,-4.04966 0,-4.04966 1.6142,-3.20034 c 2.2694,-4.49952 6.2554,-8.55926 10.596,-10.79193 l 3.7101,-1.908408 5.7241,0 5.7241,0 4.317,2.089788 4.3169,2.0898 2.8574,3.46647 2.8573,3.46647 1.2877,4.19374 c 0.7082,2.30655 1.9027,6.89373 2.6544,10.19373 l 1.3666,6 0.5867,12.999997 0.5866,13 -1.5364,10 -1.5363,10 -2.668,8.5 c -1.4673,4.675 -4.1665,11.7625 -5.9981,15.75 l -3.3302,7.25 -2.315,-0.0144 -2.3151,-0.0144 -10.1174,-4.86567 z"
         id="path5340"
         style="fill:#00a000;fill-opacity:1" />
      <path
         d="m 420.22356,139.22702 -1.0155,-1.26933 -1.2028,-7 -1.2028,-7 0.024,-12.02067 0.024,-12.020657 1.6467,-7.97934 c 2.3412,-11.34482 5.0185,-18.98059 9.7997,-27.94923 l 4.1658,-7.814338 3.8064,-3.078376 3.8063,-3.078377 6.6937,-0.338656 6.6936,-0.338657 3.475,1.914419 3.4749,1.91442 2.9955,3.701102 2.9956,3.701103 0.3923,6.94363 0.3924,6.94363 0.6371,-0.0145 c 0.3505,-0.008 2.6622,-0.72436 5.1372,-1.59191 l 4.5,-1.57736 4.4668,0.6025 4.4668,0.6025 3.66,2.42209 3.6601,2.4221 2.0787,3.36349 2.0788,3.3635 0.6389,3.99583 0.639,3.99584 -1.1971,4.44567 -1.1971,4.445657 -8.6474,8.63185 -8.6475,8.63184 -7.3237,4.72663 c -8.2413,5.31876 -16.6688,9.3381 -25.9958,12.39818 -5.5762,1.82947 -9.423,2.65349 -21.792,4.66804 l -3.1115,0.50677 -1.0155,-1.26933 z"
         id="path5338"
         style="fill:#00a000;fill-opacity:1" />
      <path
         d="m 360.95646,108.83371 c -2.2062,-1.99319 -6.0962,-6.38069 -8.6445,-9.749997 l -4.6333,-6.12602 -4.3652,-9 -4.3651,-9 -1.4758,-7 c -0.8117,-3.85 -1.4836,-8.73199 -1.4931,-10.848869 l -0.017,-3.848871 1.6065,-3.385366 1.6064,-3.385367 3.2616,-2.015762 3.2616,-2.015763 4.6977,0 4.6977,0 2.1842,1.0849 c 1.2014,0.596695 3.5742,2.669337 5.2731,4.605872 l 3.0887,3.520972 2.0211,-3.425397 2.021,-3.425398 3.7818,-1.79457 3.7817,-1.79457 4.4727,0.504134 4.4727,0.504135 2.6357,1.931046 2.6358,1.931046 1.8149,3.428915 1.8148,3.428915 -0.5514,6.499998 c -0.3033,3.575 -1.2337,9.2 -2.0675,12.5 l -1.516,6 -4.952,10.0793 -4.9521,10.07931 -6.639,7.170687 -6.639,7.1707 -1.4035,0 -1.4034,0 -4.0114,-3.62398 z"
         id="path3046"
         style="fill:#00ca00;fill-opacity:0.91556061" />
      <text
         x="185.31752"
         y="550.66608"
         transform="scale(0.90968535,1.0992812)"
         id="text3057"
         xml:space="preserve"
         style="font-size:89.2215271px;font-style:normal;font-variant:normal;font-weight:normal;font-stretch:normal;line-height:125%;letter-spacing:0px;word-spacing:0px;fill:#000000;fill-opacity:1;stroke:none;font-family:Optima;-inkscape-font-specification:Optima"><tspan
           x="185.31752"
           y="550.66608"
           id="tspan3059">hare</tspan></text>
      <text
         x="468.24478"
         y="550.71448"
         transform="scale(0.90968535,1.0992812)"
         id="text3061"
         xml:space="preserve"
         style="font-size:89.2215271px;font-style:normal;font-variant:normal;font-weight:normal;font-stretch:normal;line-height:125%;letter-spacing:0px;word-spacing:0px;fill:#000000;fill-opacity:1;stroke:none;font-family:Optima;-inkscape-font-specification:Optima"><tspan
           x="468.24478"
           y="550.71448"
           id="tspan3063">ic</tspan></text>
    </g>
  </g>
</svg>
